

[INFO]  :  UI.TRAFIL -:- connectActionPerformed -:- START TIME:2012-04-26 15:56:05
[SEVERE]  :  utilities.DatabaseConnection -:- connect -:- Succesfully Connected to Database trafil as root
[SEVERE]  :  src.TracefileHandler -:- performConnection -:- Succesfully Connected to Database trafil as root
[INFO]  :  Simulations.VideoSimulator -:- execute -:- Execution Message:
ffmpeg version 0.4.9-pre1, build 4723, Copyright (c) 2000-2004 Fabrice Bellard
  built on Oct 20 2004 18:37:34, gcc: 3.2.3 (mingw special 20030504-1)
Input #0, rawvideo, from '/home/miced/TRAFIL/ExternalTools/akiyo_cif.yuv':
  Duration: N/A, bitrate: N/A
  Stream #0.0: Video: rawvideo, yuv420p, 352x288, 25.00 fps
fixme:msvcrt:MSVCRT__sopen_s : pmode 0x01b6 ignored
Output #0, m4v, to 'akiyo_cif.yuv_Q2.m4v':
  Stream #0.0: Video: mpeg4, 352x288, 25.00 fps, q=2-31, 200 kb/s
Stream mapping:
  Stream #0.0 -> #0.0
[mpeg4 @ 006C3500]removing common factors from framerate
frame=  300 q=2.0 Lsize=     992kB time=12.0 bitrate= 676.9kbits/s    

video:992kB audio:0kB global headers:0kB muxing overhead 0.000000%
1177 packets sent.
ffmpeg version 0.4.9-pre1, build 4723, Copyright (c) 2000-2004 Fabrice Bellard
  built on Oct 20 2004 18:37:34, gcc: 3.2.3 (mingw special 20030504-1)
Input #0, rawvideo, from '/home/miced/TRAFIL/ExternalTools/akiyo_cif.yuv':
  Duration: N/A, bitrate: N/A
  Stream #0.0: Video: rawvideo, yuv420p, 352x288, 25.00 fps
fixme:msvcrt:MSVCRT__sopen_s : pmode 0x01b6 ignored
Output #0, m4v, to 'akiyo_cif.yuv_Q3.m4v':
  Stream #0.0: Video: mpeg4, 352x288, 25.00 fps, q=2-31, 200 kb/s
Stream mapping:
  Stream #0.0 -> #0.0
[mpeg4 @ 006C3500]removing common factors from framerate
frame=  300 q=3.0 Lsize=     627kB time=12.0 bitrate= 427.8kbits/s    

video:627kB audio:0kB global headers:0kB muxing overhead 0.000000%
811 packets sent.
ffmpeg version 0.4.9-pre1, build 4723, Copyright (c) 2000-2004 Fabrice Bellard
  built on Oct 20 2004 18:37:34, gcc: 3.2.3 (mingw special 20030504-1)
Input #0, rawvideo, from '/home/miced/TRAFIL/ExternalTools/akiyo_cif.yuv':
  Duration: N/A, bitrate: N/A
  Stream #0.0: Video: rawvideo, yuv420p, 352x288, 25.00 fps
fixme:msvcrt:MSVCRT__sopen_s : pmode 0x01b6 ignored
Output #0, m4v, to 'akiyo_cif.yuv_Q4.m4v':
  Stream #0.0: Video: mpeg4, 352x288, 25.00 fps, q=2-31, 200 kb/s
Stream mapping:
  Stream #0.0 -> #0.0
[mpeg4 @ 006C3500]removing common factors from framerate
frame=  300 q=4.0 Lsize=     473kB time=12.0 bitrate= 323.2kbits/s    

video:473kB audio:0kB global headers:0kB muxing overhead 0.000000%
659 packets sent.
ffmpeg version 0.4.9-pre1, build 4723, Copyright (c) 2000-2004 Fabrice Bellard
  built on Oct 20 2004 18:37:34, gcc: 3.2.3 (mingw special 20030504-1)
Input #0, rawvideo, from '/home/miced/TRAFIL/ExternalTools/akiyo_cif.yuv':
  Duration: N/A, bitrate: N/A
  Stream #0.0: Video: rawvideo, yuv420p, 352x288, 25.00 fps
fixme:msvcrt:MSVCRT__sopen_s : pmode 0x01b6 ignored
Output #0, m4v, to 'akiyo_cif.yuv_Q5.m4v':
  Stream #0.0: Video: mpeg4, 352x288, 25.00 fps, q=2-31, 200 kb/s
Stream mapping:
  Stream #0.0 -> #0.0
[mpeg4 @ 006C3500]removing common factors from framerate
frame=  300 q=5.0 Lsize=     374kB time=12.0 bitrate= 255.0kbits/s    

video:374kB audio:0kB global headers:0kB muxing overhead 0.000000%
534 packets sent.
ffmpeg version 0.4.9-pre1, build 4723, Copyright (c) 2000-2004 Fabrice Bellard
  built on Oct 20 2004 18:37:34, gcc: 3.2.3 (mingw special 20030504-1)
Input #0, rawvideo, from '/home/miced/TRAFIL/ExternalTools/akiyo_cif.yuv':
  Duration: N/A, bitrate: N/A
  Stream #0.0: Video: rawvideo, yuv420p, 352x288, 25.00 fps
fixme:msvcrt:MSVCRT__sopen_s : pmode 0x01b6 ignored
Output #0, m4v, to 'akiyo_cif.yuv_Q6.m4v':
  Stream #0.0: Video: mpeg4, 352x288, 25.00 fps, q=2-31, 200 kb/s
Stream mapping:
  Stream #0.0 -> #0.0
[mpeg4 @ 006C3500]removing common factors from framerate
frame=  300 q=6.0 Lsize=     312kB time=12.0 bitrate= 212.9kbits/s    

video:312kB audio:0kB global headers:0kB muxing overhead 0.000000%
496 packets sent.
ffmpeg version 0.4.9-pre1, build 4723, Copyright (c) 2000-2004 Fabrice Bellard
  built on Oct 20 2004 18:37:34, gcc: 3.2.3 (mingw special 20030504-1)
Input #0, rawvideo, from '/home/miced/TRAFIL/ExternalTools/akiyo_cif.yuv':
  Duration: N/A, bitrate: N/A
  Stream #0.0: Video: rawvideo, yuv420p, 352x288, 25.00 fps
fixme:msvcrt:MSVCRT__sopen_s : pmode 0x01b6 ignored
Output #0, m4v, to 'akiyo_cif.yuv_Q7.m4v':
  Stream #0.0: Video: mpeg4, 352x288, 25.00 fps, q=2-31, 200 kb/s
Stream mapping:
  Stream #0.0 -> #0.0
[mpeg4 @ 006C3500]removing common factors from framerate
frame=  300 q=7.0 Lsize=     267kB time=12.0 bitrate= 182.6kbits/s    

video:267kB audio:0kB global headers:0kB muxing overhead 0.000000%
475 packets sent.
ffmpeg version 0.4.9-pre1, build 4723, Copyright (c) 2000-2004 Fabrice Bellard
  built on Oct 20 2004 18:37:34, gcc: 3.2.3 (mingw special 20030504-1)
Input #0, rawvideo, from '/home/miced/TRAFIL/ExternalTools/akiyo_cif.yuv':
  Duration: N/A, bitrate: N/A
  Stream #0.0: Video: rawvideo, yuv420p, 352x288, 25.00 fps
fixme:msvcrt:MSVCRT__sopen_s : pmode 0x01b6 ignored
Output #0, m4v, to 'akiyo_cif.yuv_Q8.m4v':
  Stream #0.0: Video: mpeg4, 352x288, 25.00 fps, q=2-31, 200 kb/s
Stream mapping:
  Stream #0.0 -> #0.0
[mpeg4 @ 006C3500]removing common factors from framerate
frame=  300 q=8.0 Lsize=     237kB time=12.0 bitrate= 161.6kbits/s    

video:237kB audio:0kB global headers:0kB muxing overhead 0.000000%
450 packets sent.
ffmpeg version 0.4.9-pre1, build 4723, Copyright (c) 2000-2004 Fabrice Bellard
  built on Oct 20 2004 18:37:34, gcc: 3.2.3 (mingw special 20030504-1)
Input #0, rawvideo, from '/home/miced/TRAFIL/ExternalTools/akiyo_cif.yuv':
  Duration: N/A, bitrate: N/A
  Stream #0.0: Video: rawvideo, yuv420p, 352x288, 25.00 fps
fixme:msvcrt:MSVCRT__sopen_s : pmode 0x01b6 ignored
Output #0, m4v, to 'akiyo_cif.yuv_Q9.m4v':
  Stream #0.0: Video: mpeg4, 352x288, 25.00 fps, q=2-31, 200 kb/s
Stream mapping:
  Stream #0.0 -> #0.0
[mpeg4 @ 006C3500]removing common factors from framerate
frame=  300 q=9.0 Lsize=     213kB time=12.0 bitrate= 145.5kbits/s    

video:213kB audio:0kB global headers:0kB muxing overhead 0.000000%
450 packets sent.
ffmpeg version 0.4.9-pre1, build 4723, Copyright (c) 2000-2004 Fabrice Bellard
  built on Oct 20 2004 18:37:34, gcc: 3.2.3 (mingw special 20030504-1)
Input #0, rawvideo, from '/home/miced/TRAFIL/ExternalTools/akiyo_cif.yuv':
  Duration: N/A, bitrate: N/A
  Stream #0.0: Video: rawvideo, yuv420p, 352x288, 25.00 fps
fixme:msvcrt:MSVCRT__sopen_s : pmode 0x01b6 ignored
Output #0, m4v, to 'akiyo_cif.yuv_Q10.m4v':
  Stream #0.0: Video: mpeg4, 352x288, 25.00 fps, q=2-31, 200 kb/s
Stream mapping:
  Stream #0.0 -> #0.0
[mpeg4 @ 006C3500]removing common factors from framerate
frame=  300 q=10.0 Lsize=     192kB time=12.0 bitrate= 130.8kbits/s    

video:192kB audio:0kB global headers:0kB muxing overhead 0.000000%
425 packets sent.
ffmpeg version 0.4.9-pre1, build 4723, Copyright (c) 2000-2004 Fabrice Bellard
  built on Oct 20 2004 18:37:34, gcc: 3.2.3 (mingw special 20030504-1)
Input #0, rawvideo, from '/home/miced/TRAFIL/ExternalTools/akiyo_cif.yuv':
  Duration: N/A, bitrate: N/A
  Stream #0.0: Video: rawvideo, yuv420p, 352x288, 25.00 fps
fixme:msvcrt:MSVCRT__sopen_s : pmode 0x01b6 ignored
Output #0, m4v, to 'akiyo_cif.yuv_Q11.m4v':
  Stream #0.0: Video: mpeg4, 352x288, 25.00 fps, q=2-31, 200 kb/s
Stream mapping:
  Stream #0.0 -> #0.0
[mpeg4 @ 006C3500]removing common factors from framerate
frame=  300 q=11.0 Lsize=     175kB time=12.0 bitrate= 119.5kbits/s    

video:175kB audio:0kB global headers:0kB muxing overhead 0.000000%
425 packets sent.
ffmpeg version 0.4.9-pre1, build 4723, Copyright (c) 2000-2004 Fabrice Bellard
  built on Oct 20 2004 18:37:34, gcc: 3.2.3 (mingw special 20030504-1)
Input #0, rawvideo, from '/home/miced/TRAFIL/ExternalTools/akiyo_cif.yuv':
  Duration: N/A, bitrate: N/A
  Stream #0.0: Video: rawvideo, yuv420p, 352x288, 25.00 fps
fixme:msvcrt:MSVCRT__sopen_s : pmode 0x01b6 ignored
Output #0, m4v, to 'akiyo_cif.yuv_Q12.m4v':
  Stream #0.0: Video: mpeg4, 352x288, 25.00 fps, q=2-31, 200 kb/s
Stream mapping:
  Stream #0.0 -> #0.0
[mpeg4 @ 006C3500]removing common factors from framerate
frame=  300 q=12.0 Lsize=     163kB time=12.0 bitrate= 111.0kbits/s    

video:163kB audio:0kB global headers:0kB muxing overhead 0.000000%
425 packets sent.
ffmpeg version 0.4.9-pre1, build 4723, Copyright (c) 2000-2004 Fabrice Bellard
  built on Oct 20 2004 18:37:34, gcc: 3.2.3 (mingw special 20030504-1)
Input #0, rawvideo, from '/home/miced/TRAFIL/ExternalTools/akiyo_cif.yuv':
  Duration: N/A, bitrate: N/A
  Stream #0.0: Video: rawvideo, yuv420p, 352x288, 25.00 fps
fixme:msvcrt:MSVCRT__sopen_s : pmode 0x01b6 ignored
Output #0, m4v, to 'akiyo_cif.yuv_Q13.m4v':
  Stream #0.0: Video: mpeg4, 352x288, 25.00 fps, q=2-31, 200 kb/s
Stream mapping:
  Stream #0.0 -> #0.0
[mpeg4 @ 006C3500]removing common factors from framerate
frame=  300 q=13.0 Lsize=     153kB time=12.0 bitrate= 104.5kbits/s    

video:153kB audio:0kB global headers:0kB muxing overhead 0.000000%
408 packets sent.
ffmpeg version 0.4.9-pre1, build 4723, Copyright (c) 2000-2004 Fabrice Bellard
  built on Oct 20 2004 18:37:34, gcc: 3.2.3 (mingw special 20030504-1)
Input #0, rawvideo, from '/home/miced/TRAFIL/ExternalTools/akiyo_cif.yuv':
  Duration: N/A, bitrate: N/A
  Stream #0.0: Video: rawvideo, yuv420p, 352x288, 25.00 fps
fixme:msvcrt:MSVCRT__sopen_s : pmode 0x01b6 ignored
Output #0, m4v, to 'akiyo_cif.yuv_Q14.m4v':
  Stream #0.0: Video: mpeg4, 352x288, 25.00 fps, q=2-31, 200 kb/s
Stream mapping:
  Stream #0.0 -> #0.0
[mpeg4 @ 006C3500]removing common factors from framerate
frame=  300 q=14.0 Lsize=     143kB time=12.0 bitrate=  97.5kbits/s    

video:143kB audio:0kB global headers:0kB muxing overhead 0.000000%
400 packets sent.
ffmpeg version 0.4.9-pre1, build 4723, Copyright (c) 2000-2004 Fabrice Bellard
  built on Oct 20 2004 18:37:34, gcc: 3.2.3 (mingw special 20030504-1)
Input #0, rawvideo, from '/home/miced/TRAFIL/ExternalTools/akiyo_cif.yuv':
  Duration: N/A, bitrate: N/A
  Stream #0.0: Video: rawvideo, yuv420p, 352x288, 25.00 fps
fixme:msvcrt:MSVCRT__sopen_s : pmode 0x01b6 ignored
Output #0, m4v, to 'akiyo_cif.yuv_Q15.m4v':
  Stream #0.0: Video: mpeg4, 352x288, 25.00 fps, q=2-31, 200 kb/s
Stream mapping:
  Stream #0.0 -> #0.0
[mpeg4 @ 006C3500]removing common factors from framerate
frame=  300 q=15.0 Lsize=     135kB time=12.0 bitrate=  92.1kbits/s    

video:135kB audio:0kB global headers:0kB muxing overhead 0.000000%
400 packets sent.
ffmpeg version 0.4.9-pre1, build 4723, Copyright (c) 2000-2004 Fabrice Bellard
  built on Oct 20 2004 18:37:34, gcc: 3.2.3 (mingw special 20030504-1)
Input #0, rawvideo, from '/home/miced/TRAFIL/ExternalTools/akiyo_cif.yuv':
  Duration: N/A, bitrate: N/A
  Stream #0.0: Video: rawvideo, yuv420p, 352x288, 25.00 fps
fixme:msvcrt:MSVCRT__sopen_s : pmode 0x01b6 ignored
Output #0, m4v, to 'akiyo_cif.yuv_Q16.m4v':
  Stream #0.0: Video: mpeg4, 352x288, 25.00 fps, q=2-31, 200 kb/s
Stream mapping:
  Stream #0.0 -> #0.0
[mpeg4 @ 006C3500]removing common factors from framerate
frame=  300 q=16.0 Lsize=     129kB time=12.0 bitrate=  87.8kbits/s    

video:129kB audio:0kB global headers:0kB muxing overhead 0.000000%
400 packets sent.
ffmpeg version 0.4.9-pre1, build 4723, Copyright (c) 2000-2004 Fabrice Bellard
  built on Oct 20 2004 18:37:34, gcc: 3.2.3 (mingw special 20030504-1)
Input #0, rawvideo, from '/home/miced/TRAFIL/ExternalTools/akiyo_cif.yuv':
  Duration: N/A, bitrate: N/A
  Stream #0.0: Video: rawvideo, yuv420p, 352x288, 25.00 fps
fixme:msvcrt:MSVCRT__sopen_s : pmode 0x01b6 ignored
Output #0, m4v, to 'akiyo_cif.yuv_Q17.m4v':
  Stream #0.0: Video: mpeg4, 352x288, 25.00 fps, q=2-31, 200 kb/s
Stream mapping:
  Stream #0.0 -> #0.0
[mpeg4 @ 006C3500]removing common factors from framerate
frame=  300 q=17.0 Lsize=     122kB time=12.0 bitrate=  83.0kbits/s    

video:122kB audio:0kB global headers:0kB muxing overhead 0.000000%
400 packets sent.
ffmpeg version 0.4.9-pre1, build 4723, Copyright (c) 2000-2004 Fabrice Bellard
  built on Oct 20 2004 18:37:34, gcc: 3.2.3 (mingw special 20030504-1)
Input #0, rawvideo, from '/home/miced/TRAFIL/ExternalTools/akiyo_cif.yuv':
  Duration: N/A, bitrate: N/A
  Stream #0.0: Video: rawvideo, yuv420p, 352x288, 25.00 fps
fixme:msvcrt:MSVCRT__sopen_s : pmode 0x01b6 ignored
Output #0, m4v, to 'akiyo_cif.yuv_Q18.m4v':
  Stream #0.0: Video: mpeg4, 352x288, 25.00 fps, q=2-31, 200 kb/s
Stream mapping:
  Stream #0.0 -> #0.0
[mpeg4 @ 006C3500]removing common factors from framerate
frame=  300 q=18.0 Lsize=     116kB time=12.0 bitrate=  79.2kbits/s    

video:116kB audio:0kB global headers:0kB muxing overhead 0.000000%
400 packets sent.
ffmpeg version 0.4.9-pre1, build 4723, Copyright (c) 2000-2004 Fabrice Bellard
  built on Oct 20 2004 18:37:34, gcc: 3.2.3 (mingw special 20030504-1)
Input #0, rawvideo, from '/home/miced/TRAFIL/ExternalTools/akiyo_cif.yuv':
  Duration: N/A, bitrate: N/A
  Stream #0.0: Video: rawvideo, yuv420p, 352x288, 25.00 fps
fixme:msvcrt:MSVCRT__sopen_s : pmode 0x01b6 ignored
Output #0, m4v, to 'akiyo_cif.yuv_Q19.m4v':
  Stream #0.0: Video: mpeg4, 352x288, 25.00 fps, q=2-31, 200 kb/s
Stream mapping:
  Stream #0.0 -> #0.0
[mpeg4 @ 006C3500]removing common factors from framerate
frame=  300 q=19.0 Lsize=     111kB time=12.0 bitrate=  75.7kbits/s    

video:111kB audio:0kB global headers:0kB muxing overhead 0.000000%
382 packets sent.
ffmpeg version 0.4.9-pre1, build 4723, Copyright (c) 2000-2004 Fabrice Bellard
  built on Oct 20 2004 18:37:34, gcc: 3.2.3 (mingw special 20030504-1)
Input #0, rawvideo, from '/home/miced/TRAFIL/ExternalTools/akiyo_cif.yuv':
  Duration: N/A, bitrate: N/A
  Stream #0.0: Video: rawvideo, yuv420p, 352x288, 25.00 fps
fixme:msvcrt:MSVCRT__sopen_s : pmode 0x01b6 ignored
Output #0, m4v, to 'akiyo_cif.yuv_Q20.m4v':
  Stream #0.0: Video: mpeg4, 352x288, 25.00 fps, q=2-31, 200 kb/s
Stream mapping:
  Stream #0.0 -> #0.0
[mpeg4 @ 006C3500]removing common factors from framerate
frame=  300 q=20.0 Lsize=     106kB time=12.0 bitrate=  72.6kbits/s    

video:106kB audio:0kB global headers:0kB muxing overhead 0.000000%
375 packets sent.
ffmpeg version 0.4.9-pre1, build 4723, Copyright (c) 2000-2004 Fabrice Bellard
  built on Oct 20 2004 18:37:34, gcc: 3.2.3 (mingw special 20030504-1)
Input #0, rawvideo, from '/home/miced/TRAFIL/ExternalTools/akiyo_cif.yuv':
  Duration: N/A, bitrate: N/A
  Stream #0.0: Video: rawvideo, yuv420p, 352x288, 25.00 fps
fixme:msvcrt:MSVCRT__sopen_s : pmode 0x01b6 ignored
Output #0, m4v, to 'akiyo_cif.yuv_Q21.m4v':
  Stream #0.0: Video: mpeg4, 352x288, 25.00 fps, q=2-31, 200 kb/s
Stream mapping:
  Stream #0.0 -> #0.0
[mpeg4 @ 006C3500]removing common factors from framerate
frame=  300 q=21.0 Lsize=     104kB time=12.0 bitrate=  70.9kbits/s    

video:104kB audio:0kB global headers:0kB muxing overhead 0.000000%
375 packets sent.
ffmpeg version 0.4.9-pre1, build 4723, Copyright (c) 2000-2004 Fabrice Bellard
  built on Oct 20 2004 18:37:34, gcc: 3.2.3 (mingw special 20030504-1)
Input #0, rawvideo, from '/home/miced/TRAFIL/ExternalTools/akiyo_cif.yuv':
  Duration: N/A, bitrate: N/A
  Stream #0.0: Video: rawvideo, yuv420p, 352x288, 25.00 fps
fixme:msvcrt:MSVCRT__sopen_s : pmode 0x01b6 ignored
Output #0, m4v, to 'akiyo_cif.yuv_Q22.m4v':
  Stream #0.0: Video: mpeg4, 352x288, 25.00 fps, q=2-31, 200 kb/s
Stream mapping:
  Stream #0.0 -> #0.0
[mpeg4 @ 006C3500]removing common factors from framerate
frame=  300 q=22.0 Lsize=     100kB time=12.0 bitrate=  68.5kbits/s    

video:100kB audio:0kB global headers:0kB muxing overhead 0.000000%
375 packets sent.
ffmpeg version 0.4.9-pre1, build 4723, Copyright (c) 2000-2004 Fabrice Bellard
  built on Oct 20 2004 18:37:34, gcc: 3.2.3 (mingw special 20030504-1)
Input #0, rawvideo, from '/home/miced/TRAFIL/ExternalTools/akiyo_cif.yuv':
  Duration: N/A, bitrate: N/A
  Stream #0.0: Video: rawvideo, yuv420p, 352x288, 25.00 fps
fixme:msvcrt:MSVCRT__sopen_s : pmode 0x01b6 ignored
Output #0, m4v, to 'akiyo_cif.yuv_Q23.m4v':
  Stream #0.0: Video: mpeg4, 352x288, 25.00 fps, q=2-31, 200 kb/s
Stream mapping:
  Stream #0.0 -> #0.0
[mpeg4 @ 006C3500]removing common factors from framerate
frame=  300 q=23.0 Lsize=      97kB time=12.0 bitrate=  66.2kbits/s    

video:97kB audio:0kB global headers:0kB muxing overhead 0.000000%
375 packets sent.
ffmpeg version 0.4.9-pre1, build 4723, Copyright (c) 2000-2004 Fabrice Bellard
  built on Oct 20 2004 18:37:34, gcc: 3.2.3 (mingw special 20030504-1)
Input #0, rawvideo, from '/home/miced/TRAFIL/ExternalTools/akiyo_cif.yuv':
  Duration: N/A, bitrate: N/A
  Stream #0.0: Video: rawvideo, yuv420p, 352x288, 25.00 fps
fixme:msvcrt:MSVCRT__sopen_s : pmode 0x01b6 ignored
Output #0, m4v, to 'akiyo_cif.yuv_Q24.m4v':
  Stream #0.0: Video: mpeg4, 352x288, 25.00 fps, q=2-31, 200 kb/s
Stream mapping:
  Stream #0.0 -> #0.0
[mpeg4 @ 006C3500]removing common factors from framerate
frame=  300 q=24.0 Lsize=      93kB time=12.0 bitrate=  63.5kbits/s    

video:93kB audio:0kB global headers:0kB muxing overhead 0.000000%
375 packets sent.
ffmpeg version 0.4.9-pre1, build 4723, Copyright (c) 2000-2004 Fabrice Bellard
  built on Oct 20 2004 18:37:34, gcc: 3.2.3 (mingw special 20030504-1)
Input #0, rawvideo, from '/home/miced/TRAFIL/ExternalTools/akiyo_cif.yuv':
  Duration: N/A, bitrate: N/A
  Stream #0.0: Video: rawvideo, yuv420p, 352x288, 25.00 fps
fixme:msvcrt:MSVCRT__sopen_s : pmode 0x01b6 ignored
Output #0, m4v, to 'akiyo_cif.yuv_Q25.m4v':
  Stream #0.0: Video: mpeg4, 352x288, 25.00 fps, q=2-31, 200 kb/s
Stream mapping:
  Stream #0.0 -> #0.0
[mpeg4 @ 006C3500]removing common factors from framerate
frame=  300 q=25.0 Lsize=      91kB time=12.0 bitrate=  62.4kbits/s    

video:91kB audio:0kB global headers:0kB muxing overhead 0.000000%
375 packets sent.
ffmpeg version 0.4.9-pre1, build 4723, Copyright (c) 2000-2004 Fabrice Bellard
  built on Oct 20 2004 18:37:34, gcc: 3.2.3 (mingw special 20030504-1)
Input #0, rawvideo, from '/home/miced/TRAFIL/ExternalTools/akiyo_cif.yuv':
  Duration: N/A, bitrate: N/A
  Stream #0.0: Video: rawvideo, yuv420p, 352x288, 25.00 fps
fixme:msvcrt:MSVCRT__sopen_s : pmode 0x01b6 ignored
Output #0, m4v, to 'akiyo_cif.yuv_Q26.m4v':
  Stream #0.0: Video: mpeg4, 352x288, 25.00 fps, q=2-31, 200 kb/s
Stream mapping:
  Stream #0.0 -> #0.0
[mpeg4 @ 006C3500]removing common factors from framerate
frame=  300 q=26.0 Lsize=      94kB time=12.0 bitrate=  64.5kbits/s    

video:94kB audio:0kB global headers:0kB muxing overhead 0.000000%
375 packets sent.
ffmpeg version 0.4.9-pre1, build 4723, Copyright (c) 2000-2004 Fabrice Bellard
  built on Oct 20 2004 18:37:34, gcc: 3.2.3 (mingw special 20030504-1)
Input #0, rawvideo, from '/home/miced/TRAFIL/ExternalTools/akiyo_cif.yuv':
  Duration: N/A, bitrate: N/A
  Stream #0.0: Video: rawvideo, yuv420p, 352x288, 25.00 fps
fixme:msvcrt:MSVCRT__sopen_s : pmode 0x01b6 ignored
Output #0, m4v, to 'akiyo_cif.yuv_Q27.m4v':
  Stream #0.0: Video: mpeg4, 352x288, 25.00 fps, q=2-31, 200 kb/s
Stream mapping:
  Stream #0.0 -> #0.0
[mpeg4 @ 006C3500]removing common factors from framerate
frame=  300 q=27.0 Lsize=      87kB time=12.0 bitrate=  59.5kbits/s    

video:87kB audio:0kB global headers:0kB muxing overhead 0.000000%
375 packets sent.
ffmpeg version 0.4.9-pre1, build 4723, Copyright (c) 2000-2004 Fabrice Bellard
  built on Oct 20 2004 18:37:34, gcc: 3.2.3 (mingw special 20030504-1)
Input #0, rawvideo, from '/home/miced/TRAFIL/ExternalTools/akiyo_cif.yuv':
  Duration: N/A, bitrate: N/A
  Stream #0.0: Video: rawvideo, yuv420p, 352x288, 25.00 fps
fixme:msvcrt:MSVCRT__sopen_s : pmode 0x01b6 ignored
Output #0, m4v, to 'akiyo_cif.yuv_Q28.m4v':
  Stream #0.0: Video: mpeg4, 352x288, 25.00 fps, q=2-31, 200 kb/s
Stream mapping:
  Stream #0.0 -> #0.0
[mpeg4 @ 006C3500]removing common factors from framerate
frame=  300 q=28.0 Lsize=      84kB time=12.0 bitrate=  57.5kbits/s    

video:84kB audio:0kB global headers:0kB muxing overhead 0.000000%
375 packets sent.
ffmpeg version 0.4.9-pre1, build 4723, Copyright (c) 2000-2004 Fabrice Bellard
  built on Oct 20 2004 18:37:34, gcc: 3.2.3 (mingw special 20030504-1)
Input #0, rawvideo, from '/home/miced/TRAFIL/ExternalTools/akiyo_cif.yuv':
  Duration: N/A, bitrate: N/A
  Stream #0.0: Video: rawvideo, yuv420p, 352x288, 25.00 fps
fixme:msvcrt:MSVCRT__sopen_s : pmode 0x01b6 ignored
Output #0, m4v, to 'akiyo_cif.yuv_Q29.m4v':
  Stream #0.0: Video: mpeg4, 352x288, 25.00 fps, q=2-31, 200 kb/s
Stream mapping:
  Stream #0.0 -> #0.0
[mpeg4 @ 006C3500]removing common factors from framerate
frame=  300 q=29.0 Lsize=      84kB time=12.0 bitrate=  57.1kbits/s    

video:84kB audio:0kB global headers:0kB muxing overhead 0.000000%
375 packets sent.
ffmpeg version 0.4.9-pre1, build 4723, Copyright (c) 2000-2004 Fabrice Bellard
  built on Oct 20 2004 18:37:34, gcc: 3.2.3 (mingw special 20030504-1)
Input #0, rawvideo, from '/home/miced/TRAFIL/ExternalTools/akiyo_cif.yuv':
  Duration: N/A, bitrate: N/A
  Stream #0.0: Video: rawvideo, yuv420p, 352x288, 25.00 fps
fixme:msvcrt:MSVCRT__sopen_s : pmode 0x01b6 ignored
Output #0, m4v, to 'akiyo_cif.yuv_Q30.m4v':
  Stream #0.0: Video: mpeg4, 352x288, 25.00 fps, q=2-31, 200 kb/s
Stream mapping:
  Stream #0.0 -> #0.0
[mpeg4 @ 006C3500]removing common factors from framerate
frame=  300 q=30.0 Lsize=      82kB time=12.0 bitrate=  56.3kbits/s    

video:82kB audio:0kB global headers:0kB muxing overhead 0.000000%
375 packets sent.
ffmpeg version 0.4.9-pre1, build 4723, Copyright (c) 2000-2004 Fabrice Bellard
  built on Oct 20 2004 18:37:34, gcc: 3.2.3 (mingw special 20030504-1)
Input #0, rawvideo, from '/home/miced/TRAFIL/ExternalTools/akiyo_cif.yuv':
  Duration: N/A, bitrate: N/A
  Stream #0.0: Video: rawvideo, yuv420p, 352x288, 25.00 fps
fixme:msvcrt:MSVCRT__sopen_s : pmode 0x01b6 ignored
Output #0, m4v, to 'akiyo_cif.yuv_Q31.m4v':
  Stream #0.0: Video: mpeg4, 352x288, 25.00 fps, q=2-31, 200 kb/s
Stream mapping:
  Stream #0.0 -> #0.0
[mpeg4 @ 006C3500]removing common factors from framerate
frame=  300 q=31.0 Lsize=      83kB time=12.0 bitrate=  56.6kbits/s    

video:83kB audio:0kB global headers:0kB muxing overhead 0.000000%
375 packets sent.
Make RED trace variables
Evalvid-RA: Start making GOP and Frame trace files for 30 Rate variants
warning: no class variable vbrTracefile2::debug_

	see tcl-object.tcl in tclcl for info about this warning.

Evalvid-RA: #of frames written to GOP and Frame trace files: 326

#################statistics######################
#Bytes of drops     : 1697340 
#Bytes of departures: 205936896 
drops stats         : 0.0081746634500102378 
utilization         : 0.98065188571428574 
Number of extra RA variants are 29
Primary Video source reached end, will be stopped now


[INFO]  :  UI.TRAFIL -:- connectActionPerformed -:- START TIME:2012-04-26 17:10:08
[SEVERE]  :  utilities.DatabaseConnection -:- connect -:- Succesfully Connected to Database trafil as root
[SEVERE]  :  src.TracefileHandler -:- performConnection -:- Succesfully Connected to Database trafil as root
[INFO]  :  Simulations.VideoSimulator -:- execute -:- Execution Message:
ffmpeg version 0.4.9-pre1, build 4723, Copyright (c) 2000-2004 Fabrice Bellard
  built on Oct 20 2004 18:37:34, gcc: 3.2.3 (mingw special 20030504-1)
Input #0, rawvideo, from '/home/miced/TRAFIL/ExternalTools/akiyo_cif.yuv':
  Duration: N/A, bitrate: N/A
  Stream #0.0: Video: rawvideo, yuv420p, 352x288, 25.00 fps
fixme:msvcrt:MSVCRT__sopen_s : pmode 0x01b6 ignored
Output #0, m4v, to 'akiyo_cif.yuv_Q2.m4v':
  Stream #0.0: Video: mpeg4, 352x288, 25.00 fps, q=2-31, 200 kb/s
Stream mapping:
  Stream #0.0 -> #0.0
[mpeg4 @ 006C3500]removing common factors from framerate
frame=  300 q=2.0 Lsize=     992kB time=12.0 bitrate= 676.9kbits/s    

video:992kB audio:0kB global headers:0kB muxing overhead 0.000000%
1177 packets sent.
ffmpeg version 0.4.9-pre1, build 4723, Copyright (c) 2000-2004 Fabrice Bellard
  built on Oct 20 2004 18:37:34, gcc: 3.2.3 (mingw special 20030504-1)
Input #0, rawvideo, from '/home/miced/TRAFIL/ExternalTools/akiyo_cif.yuv':
  Duration: N/A, bitrate: N/A
  Stream #0.0: Video: rawvideo, yuv420p, 352x288, 25.00 fps
fixme:msvcrt:MSVCRT__sopen_s : pmode 0x01b6 ignored
Output #0, m4v, to 'akiyo_cif.yuv_Q3.m4v':
  Stream #0.0: Video: mpeg4, 352x288, 25.00 fps, q=2-31, 200 kb/s
Stream mapping:
  Stream #0.0 -> #0.0
[mpeg4 @ 006C3500]removing common factors from framerate
frame=  300 q=3.0 Lsize=     627kB time=12.0 bitrate= 427.8kbits/s    

video:627kB audio:0kB global headers:0kB muxing overhead 0.000000%
811 packets sent.
ffmpeg version 0.4.9-pre1, build 4723, Copyright (c) 2000-2004 Fabrice Bellard
  built on Oct 20 2004 18:37:34, gcc: 3.2.3 (mingw special 20030504-1)
Input #0, rawvideo, from '/home/miced/TRAFIL/ExternalTools/akiyo_cif.yuv':
  Duration: N/A, bitrate: N/A
  Stream #0.0: Video: rawvideo, yuv420p, 352x288, 25.00 fps
fixme:msvcrt:MSVCRT__sopen_s : pmode 0x01b6 ignored
Output #0, m4v, to 'akiyo_cif.yuv_Q4.m4v':
  Stream #0.0: Video: mpeg4, 352x288, 25.00 fps, q=2-31, 200 kb/s
Stream mapping:
  Stream #0.0 -> #0.0
[mpeg4 @ 006C3500]removing common factors from framerate
frame=  300 q=4.0 Lsize=     473kB time=12.0 bitrate= 323.2kbits/s    

video:473kB audio:0kB global headers:0kB muxing overhead 0.000000%
659 packets sent.
ffmpeg version 0.4.9-pre1, build 4723, Copyright (c) 2000-2004 Fabrice Bellard
  built on Oct 20 2004 18:37:34, gcc: 3.2.3 (mingw special 20030504-1)
Input #0, rawvideo, from '/home/miced/TRAFIL/ExternalTools/akiyo_cif.yuv':
  Duration: N/A, bitrate: N/A
  Stream #0.0: Video: rawvideo, yuv420p, 352x288, 25.00 fps
fixme:msvcrt:MSVCRT__sopen_s : pmode 0x01b6 ignored
Output #0, m4v, to 'akiyo_cif.yuv_Q5.m4v':
  Stream #0.0: Video: mpeg4, 352x288, 25.00 fps, q=2-31, 200 kb/s
Stream mapping:
  Stream #0.0 -> #0.0
[mpeg4 @ 006C3500]removing common factors from framerate
frame=  300 q=5.0 Lsize=     374kB time=12.0 bitrate= 255.0kbits/s    

video:374kB audio:0kB global headers:0kB muxing overhead 0.000000%
534 packets sent.
ffmpeg version 0.4.9-pre1, build 4723, Copyright (c) 2000-2004 Fabrice Bellard
  built on Oct 20 2004 18:37:34, gcc: 3.2.3 (mingw special 20030504-1)
Input #0, rawvideo, from '/home/miced/TRAFIL/ExternalTools/akiyo_cif.yuv':
  Duration: N/A, bitrate: N/A
  Stream #0.0: Video: rawvideo, yuv420p, 352x288, 25.00 fps
fixme:msvcrt:MSVCRT__sopen_s : pmode 0x01b6 ignored
Output #0, m4v, to 'akiyo_cif.yuv_Q6.m4v':
  Stream #0.0: Video: mpeg4, 352x288, 25.00 fps, q=2-31, 200 kb/s
Stream mapping:
  Stream #0.0 -> #0.0
[mpeg4 @ 006C3500]removing common factors from framerate
frame=  300 q=6.0 Lsize=     312kB time=12.0 bitrate= 212.9kbits/s    

video:312kB audio:0kB global headers:0kB muxing overhead 0.000000%
496 packets sent.
ffmpeg version 0.4.9-pre1, build 4723, Copyright (c) 2000-2004 Fabrice Bellard
  built on Oct 20 2004 18:37:34, gcc: 3.2.3 (mingw special 20030504-1)
Input #0, rawvideo, from '/home/miced/TRAFIL/ExternalTools/akiyo_cif.yuv':
  Duration: N/A, bitrate: N/A
  Stream #0.0: Video: rawvideo, yuv420p, 352x288, 25.00 fps
fixme:msvcrt:MSVCRT__sopen_s : pmode 0x01b6 ignored
Output #0, m4v, to 'akiyo_cif.yuv_Q7.m4v':
  Stream #0.0: Video: mpeg4, 352x288, 25.00 fps, q=2-31, 200 kb/s
Stream mapping:
  Stream #0.0 -> #0.0
[mpeg4 @ 006C3500]removing common factors from framerate
frame=  300 q=7.0 Lsize=     267kB time=12.0 bitrate= 182.6kbits/s    

video:267kB audio:0kB global headers:0kB muxing overhead 0.000000%
475 packets sent.
ffmpeg version 0.4.9-pre1, build 4723, Copyright (c) 2000-2004 Fabrice Bellard
  built on Oct 20 2004 18:37:34, gcc: 3.2.3 (mingw special 20030504-1)
Input #0, rawvideo, from '/home/miced/TRAFIL/ExternalTools/akiyo_cif.yuv':
  Duration: N/A, bitrate: N/A
  Stream #0.0: Video: rawvideo, yuv420p, 352x288, 25.00 fps
fixme:msvcrt:MSVCRT__sopen_s : pmode 0x01b6 ignored
Output #0, m4v, to 'akiyo_cif.yuv_Q8.m4v':
  Stream #0.0: Video: mpeg4, 352x288, 25.00 fps, q=2-31, 200 kb/s
Stream mapping:
  Stream #0.0 -> #0.0
[mpeg4 @ 006C3500]removing common factors from framerate
frame=  300 q=8.0 Lsize=     237kB time=12.0 bitrate= 161.6kbits/s    

video:237kB audio:0kB global headers:0kB muxing overhead 0.000000%
450 packets sent.
ffmpeg version 0.4.9-pre1, build 4723, Copyright (c) 2000-2004 Fabrice Bellard
  built on Oct 20 2004 18:37:34, gcc: 3.2.3 (mingw special 20030504-1)
Input #0, rawvideo, from '/home/miced/TRAFIL/ExternalTools/akiyo_cif.yuv':
  Duration: N/A, bitrate: N/A
  Stream #0.0: Video: rawvideo, yuv420p, 352x288, 25.00 fps
fixme:msvcrt:MSVCRT__sopen_s : pmode 0x01b6 ignored
Output #0, m4v, to 'akiyo_cif.yuv_Q9.m4v':
  Stream #0.0: Video: mpeg4, 352x288, 25.00 fps, q=2-31, 200 kb/s
Stream mapping:
  Stream #0.0 -> #0.0
[mpeg4 @ 006C3500]removing common factors from framerate
frame=  300 q=9.0 Lsize=     213kB time=12.0 bitrate= 145.5kbits/s    

video:213kB audio:0kB global headers:0kB muxing overhead 0.000000%
450 packets sent.
ffmpeg version 0.4.9-pre1, build 4723, Copyright (c) 2000-2004 Fabrice Bellard
  built on Oct 20 2004 18:37:34, gcc: 3.2.3 (mingw special 20030504-1)
Input #0, rawvideo, from '/home/miced/TRAFIL/ExternalTools/akiyo_cif.yuv':
  Duration: N/A, bitrate: N/A
  Stream #0.0: Video: rawvideo, yuv420p, 352x288, 25.00 fps
fixme:msvcrt:MSVCRT__sopen_s : pmode 0x01b6 ignored
Output #0, m4v, to 'akiyo_cif.yuv_Q10.m4v':
  Stream #0.0: Video: mpeg4, 352x288, 25.00 fps, q=2-31, 200 kb/s
Stream mapping:
  Stream #0.0 -> #0.0
[mpeg4 @ 006C3500]removing common factors from framerate
frame=  300 q=10.0 Lsize=     192kB time=12.0 bitrate= 130.8kbits/s    

video:192kB audio:0kB global headers:0kB muxing overhead 0.000000%
425 packets sent.
ffmpeg version 0.4.9-pre1, build 4723, Copyright (c) 2000-2004 Fabrice Bellard
  built on Oct 20 2004 18:37:34, gcc: 3.2.3 (mingw special 20030504-1)
Input #0, rawvideo, from '/home/miced/TRAFIL/ExternalTools/akiyo_cif.yuv':
  Duration: N/A, bitrate: N/A
  Stream #0.0: Video: rawvideo, yuv420p, 352x288, 25.00 fps
fixme:msvcrt:MSVCRT__sopen_s : pmode 0x01b6 ignored
Output #0, m4v, to 'akiyo_cif.yuv_Q11.m4v':
  Stream #0.0: Video: mpeg4, 352x288, 25.00 fps, q=2-31, 200 kb/s
Stream mapping:
  Stream #0.0 -> #0.0
[mpeg4 @ 006C3500]removing common factors from framerate
frame=  300 q=11.0 Lsize=     175kB time=12.0 bitrate= 119.5kbits/s    

video:175kB audio:0kB global headers:0kB muxing overhead 0.000000%
425 packets sent.
ffmpeg version 0.4.9-pre1, build 4723, Copyright (c) 2000-2004 Fabrice Bellard
  built on Oct 20 2004 18:37:34, gcc: 3.2.3 (mingw special 20030504-1)
Input #0, rawvideo, from '/home/miced/TRAFIL/ExternalTools/akiyo_cif.yuv':
  Duration: N/A, bitrate: N/A
  Stream #0.0: Video: rawvideo, yuv420p, 352x288, 25.00 fps
fixme:msvcrt:MSVCRT__sopen_s : pmode 0x01b6 ignored
Output #0, m4v, to 'akiyo_cif.yuv_Q12.m4v':
  Stream #0.0: Video: mpeg4, 352x288, 25.00 fps, q=2-31, 200 kb/s
Stream mapping:
  Stream #0.0 -> #0.0
[mpeg4 @ 006C3500]removing common factors from framerate
frame=  300 q=12.0 Lsize=     163kB time=12.0 bitrate= 111.0kbits/s    

video:163kB audio:0kB global headers:0kB muxing overhead 0.000000%
425 packets sent.
ffmpeg version 0.4.9-pre1, build 4723, Copyright (c) 2000-2004 Fabrice Bellard
  built on Oct 20 2004 18:37:34, gcc: 3.2.3 (mingw special 20030504-1)
Input #0, rawvideo, from '/home/miced/TRAFIL/ExternalTools/akiyo_cif.yuv':
  Duration: N/A, bitrate: N/A
  Stream #0.0: Video: rawvideo, yuv420p, 352x288, 25.00 fps
fixme:msvcrt:MSVCRT__sopen_s : pmode 0x01b6 ignored
Output #0, m4v, to 'akiyo_cif.yuv_Q13.m4v':
  Stream #0.0: Video: mpeg4, 352x288, 25.00 fps, q=2-31, 200 kb/s
Stream mapping:
  Stream #0.0 -> #0.0
[mpeg4 @ 006C3500]removing common factors from framerate
frame=  300 q=13.0 Lsize=     153kB time=12.0 bitrate= 104.5kbits/s    

video:153kB audio:0kB global headers:0kB muxing overhead 0.000000%
408 packets sent.
ffmpeg version 0.4.9-pre1, build 4723, Copyright (c) 2000-2004 Fabrice Bellard
  built on Oct 20 2004 18:37:34, gcc: 3.2.3 (mingw special 20030504-1)
Input #0, rawvideo, from '/home/miced/TRAFIL/ExternalTools/akiyo_cif.yuv':
  Duration: N/A, bitrate: N/A
  Stream #0.0: Video: rawvideo, yuv420p, 352x288, 25.00 fps
fixme:msvcrt:MSVCRT__sopen_s : pmode 0x01b6 ignored
Output #0, m4v, to 'akiyo_cif.yuv_Q14.m4v':
  Stream #0.0: Video: mpeg4, 352x288, 25.00 fps, q=2-31, 200 kb/s
Stream mapping:
  Stream #0.0 -> #0.0
[mpeg4 @ 006C3500]removing common factors from framerate
frame=  300 q=14.0 Lsize=     143kB time=12.0 bitrate=  97.5kbits/s    

video:143kB audio:0kB global headers:0kB muxing overhead 0.000000%
400 packets sent.
ffmpeg version 0.4.9-pre1, build 4723, Copyright (c) 2000-2004 Fabrice Bellard
  built on Oct 20 2004 18:37:34, gcc: 3.2.3 (mingw special 20030504-1)
Input #0, rawvideo, from '/home/miced/TRAFIL/ExternalTools/akiyo_cif.yuv':
  Duration: N/A, bitrate: N/A
  Stream #0.0: Video: rawvideo, yuv420p, 352x288, 25.00 fps
fixme:msvcrt:MSVCRT__sopen_s : pmode 0x01b6 ignored
Output #0, m4v, to 'akiyo_cif.yuv_Q15.m4v':
  Stream #0.0: Video: mpeg4, 352x288, 25.00 fps, q=2-31, 200 kb/s
Stream mapping:
  Stream #0.0 -> #0.0
[mpeg4 @ 006C3500]removing common factors from framerate
frame=  300 q=15.0 Lsize=     135kB time=12.0 bitrate=  92.1kbits/s    

video:135kB audio:0kB global headers:0kB muxing overhead 0.000000%
400 packets sent.
ffmpeg version 0.4.9-pre1, build 4723, Copyright (c) 2000-2004 Fabrice Bellard
  built on Oct 20 2004 18:37:34, gcc: 3.2.3 (mingw special 20030504-1)
Input #0, rawvideo, from '/home/miced/TRAFIL/ExternalTools/akiyo_cif.yuv':
  Duration: N/A, bitrate: N/A
  Stream #0.0: Video: rawvideo, yuv420p, 352x288, 25.00 fps
fixme:msvcrt:MSVCRT__sopen_s : pmode 0x01b6 ignored
Output #0, m4v, to 'akiyo_cif.yuv_Q16.m4v':
  Stream #0.0: Video: mpeg4, 352x288, 25.00 fps, q=2-31, 200 kb/s
Stream mapping:
  Stream #0.0 -> #0.0
[mpeg4 @ 006C3500]removing common factors from framerate
frame=  300 q=16.0 Lsize=     129kB time=12.0 bitrate=  87.8kbits/s    

video:129kB audio:0kB global headers:0kB muxing overhead 0.000000%
400 packets sent.
ffmpeg version 0.4.9-pre1, build 4723, Copyright (c) 2000-2004 Fabrice Bellard
  built on Oct 20 2004 18:37:34, gcc: 3.2.3 (mingw special 20030504-1)
Input #0, rawvideo, from '/home/miced/TRAFIL/ExternalTools/akiyo_cif.yuv':
  Duration: N/A, bitrate: N/A
  Stream #0.0: Video: rawvideo, yuv420p, 352x288, 25.00 fps
fixme:msvcrt:MSVCRT__sopen_s : pmode 0x01b6 ignored
Output #0, m4v, to 'akiyo_cif.yuv_Q17.m4v':
  Stream #0.0: Video: mpeg4, 352x288, 25.00 fps, q=2-31, 200 kb/s
Stream mapping:
  Stream #0.0 -> #0.0
[mpeg4 @ 006C3500]removing common factors from framerate
frame=  300 q=17.0 Lsize=     122kB time=12.0 bitrate=  83.0kbits/s    

video:122kB audio:0kB global headers:0kB muxing overhead 0.000000%
400 packets sent.
ffmpeg version 0.4.9-pre1, build 4723, Copyright (c) 2000-2004 Fabrice Bellard
  built on Oct 20 2004 18:37:34, gcc: 3.2.3 (mingw special 20030504-1)
Input #0, rawvideo, from '/home/miced/TRAFIL/ExternalTools/akiyo_cif.yuv':
  Duration: N/A, bitrate: N/A
  Stream #0.0: Video: rawvideo, yuv420p, 352x288, 25.00 fps
fixme:msvcrt:MSVCRT__sopen_s : pmode 0x01b6 ignored
Output #0, m4v, to 'akiyo_cif.yuv_Q18.m4v':
  Stream #0.0: Video: mpeg4, 352x288, 25.00 fps, q=2-31, 200 kb/s
Stream mapping:
  Stream #0.0 -> #0.0
[mpeg4 @ 006C3500]removing common factors from framerate
frame=  300 q=18.0 Lsize=     116kB time=12.0 bitrate=  79.2kbits/s    

video:116kB audio:0kB global headers:0kB muxing overhead 0.000000%
400 packets sent.
ffmpeg version 0.4.9-pre1, build 4723, Copyright (c) 2000-2004 Fabrice Bellard
  built on Oct 20 2004 18:37:34, gcc: 3.2.3 (mingw special 20030504-1)
Input #0, rawvideo, from '/home/miced/TRAFIL/ExternalTools/akiyo_cif.yuv':
  Duration: N/A, bitrate: N/A
  Stream #0.0: Video: rawvideo, yuv420p, 352x288, 25.00 fps
fixme:msvcrt:MSVCRT__sopen_s : pmode 0x01b6 ignored
Output #0, m4v, to 'akiyo_cif.yuv_Q19.m4v':
  Stream #0.0: Video: mpeg4, 352x288, 25.00 fps, q=2-31, 200 kb/s
Stream mapping:
  Stream #0.0 -> #0.0
[mpeg4 @ 006C3500]removing common factors from framerate
frame=  300 q=19.0 Lsize=     111kB time=12.0 bitrate=  75.7kbits/s    

video:111kB audio:0kB global headers:0kB muxing overhead 0.000000%
382 packets sent.
ffmpeg version 0.4.9-pre1, build 4723, Copyright (c) 2000-2004 Fabrice Bellard
  built on Oct 20 2004 18:37:34, gcc: 3.2.3 (mingw special 20030504-1)
Input #0, rawvideo, from '/home/miced/TRAFIL/ExternalTools/akiyo_cif.yuv':
  Duration: N/A, bitrate: N/A
  Stream #0.0: Video: rawvideo, yuv420p, 352x288, 25.00 fps
fixme:msvcrt:MSVCRT__sopen_s : pmode 0x01b6 ignored
Output #0, m4v, to 'akiyo_cif.yuv_Q20.m4v':
  Stream #0.0: Video: mpeg4, 352x288, 25.00 fps, q=2-31, 200 kb/s
Stream mapping:
  Stream #0.0 -> #0.0
[mpeg4 @ 006C3500]removing common factors from framerate
frame=  300 q=20.0 Lsize=     106kB time=12.0 bitrate=  72.6kbits/s    

video:106kB audio:0kB global headers:0kB muxing overhead 0.000000%
375 packets sent.
ffmpeg version 0.4.9-pre1, build 4723, Copyright (c) 2000-2004 Fabrice Bellard
  built on Oct 20 2004 18:37:34, gcc: 3.2.3 (mingw special 20030504-1)
Input #0, rawvideo, from '/home/miced/TRAFIL/ExternalTools/akiyo_cif.yuv':
  Duration: N/A, bitrate: N/A
  Stream #0.0: Video: rawvideo, yuv420p, 352x288, 25.00 fps
fixme:msvcrt:MSVCRT__sopen_s : pmode 0x01b6 ignored
Output #0, m4v, to 'akiyo_cif.yuv_Q21.m4v':
  Stream #0.0: Video: mpeg4, 352x288, 25.00 fps, q=2-31, 200 kb/s
Stream mapping:
  Stream #0.0 -> #0.0
[mpeg4 @ 006C3500]removing common factors from framerate
frame=  300 q=21.0 Lsize=     104kB time=12.0 bitrate=  70.9kbits/s    

video:104kB audio:0kB global headers:0kB muxing overhead 0.000000%
375 packets sent.
ffmpeg version 0.4.9-pre1, build 4723, Copyright (c) 2000-2004 Fabrice Bellard
  built on Oct 20 2004 18:37:34, gcc: 3.2.3 (mingw special 20030504-1)
Input #0, rawvideo, from '/home/miced/TRAFIL/ExternalTools/akiyo_cif.yuv':
  Duration: N/A, bitrate: N/A
  Stream #0.0: Video: rawvideo, yuv420p, 352x288, 25.00 fps
fixme:msvcrt:MSVCRT__sopen_s : pmode 0x01b6 ignored
Output #0, m4v, to 'akiyo_cif.yuv_Q22.m4v':
  Stream #0.0: Video: mpeg4, 352x288, 25.00 fps, q=2-31, 200 kb/s
Stream mapping:
  Stream #0.0 -> #0.0
[mpeg4 @ 006C3500]removing common factors from framerate
frame=  300 q=22.0 Lsize=     100kB time=12.0 bitrate=  68.5kbits/s    

video:100kB audio:0kB global headers:0kB muxing overhead 0.000000%
375 packets sent.
ffmpeg version 0.4.9-pre1, build 4723, Copyright (c) 2000-2004 Fabrice Bellard
  built on Oct 20 2004 18:37:34, gcc: 3.2.3 (mingw special 20030504-1)
Input #0, rawvideo, from '/home/miced/TRAFIL/ExternalTools/akiyo_cif.yuv':
  Duration: N/A, bitrate: N/A
  Stream #0.0: Video: rawvideo, yuv420p, 352x288, 25.00 fps
fixme:msvcrt:MSVCRT__sopen_s : pmode 0x01b6 ignored
Output #0, m4v, to 'akiyo_cif.yuv_Q23.m4v':
  Stream #0.0: Video: mpeg4, 352x288, 25.00 fps, q=2-31, 200 kb/s
Stream mapping:
  Stream #0.0 -> #0.0
[mpeg4 @ 006C3500]removing common factors from framerate
frame=  300 q=23.0 Lsize=      97kB time=12.0 bitrate=  66.2kbits/s    

video:97kB audio:0kB global headers:0kB muxing overhead 0.000000%
375 packets sent.
ffmpeg version 0.4.9-pre1, build 4723, Copyright (c) 2000-2004 Fabrice Bellard
  built on Oct 20 2004 18:37:34, gcc: 3.2.3 (mingw special 20030504-1)
Input #0, rawvideo, from '/home/miced/TRAFIL/ExternalTools/akiyo_cif.yuv':
  Duration: N/A, bitrate: N/A
  Stream #0.0: Video: rawvideo, yuv420p, 352x288, 25.00 fps
fixme:msvcrt:MSVCRT__sopen_s : pmode 0x01b6 ignored
Output #0, m4v, to 'akiyo_cif.yuv_Q24.m4v':
  Stream #0.0: Video: mpeg4, 352x288, 25.00 fps, q=2-31, 200 kb/s
Stream mapping:
  Stream #0.0 -> #0.0
[mpeg4 @ 006C3500]removing common factors from framerate
frame=  300 q=24.0 Lsize=      93kB time=12.0 bitrate=  63.5kbits/s    

video:93kB audio:0kB global headers:0kB muxing overhead 0.000000%
375 packets sent.
ffmpeg version 0.4.9-pre1, build 4723, Copyright (c) 2000-2004 Fabrice Bellard
  built on Oct 20 2004 18:37:34, gcc: 3.2.3 (mingw special 20030504-1)
Input #0, rawvideo, from '/home/miced/TRAFIL/ExternalTools/akiyo_cif.yuv':
  Duration: N/A, bitrate: N/A
  Stream #0.0: Video: rawvideo, yuv420p, 352x288, 25.00 fps
fixme:msvcrt:MSVCRT__sopen_s : pmode 0x01b6 ignored
Output #0, m4v, to 'akiyo_cif.yuv_Q25.m4v':
  Stream #0.0: Video: mpeg4, 352x288, 25.00 fps, q=2-31, 200 kb/s
Stream mapping:
  Stream #0.0 -> #0.0
[mpeg4 @ 006C3500]removing common factors from framerate
frame=  300 q=25.0 Lsize=      91kB time=12.0 bitrate=  62.4kbits/s    

video:91kB audio:0kB global headers:0kB muxing overhead 0.000000%
375 packets sent.
ffmpeg version 0.4.9-pre1, build 4723, Copyright (c) 2000-2004 Fabrice Bellard
  built on Oct 20 2004 18:37:34, gcc: 3.2.3 (mingw special 20030504-1)
Input #0, rawvideo, from '/home/miced/TRAFIL/ExternalTools/akiyo_cif.yuv':
  Duration: N/A, bitrate: N/A
  Stream #0.0: Video: rawvideo, yuv420p, 352x288, 25.00 fps
fixme:msvcrt:MSVCRT__sopen_s : pmode 0x01b6 ignored
Output #0, m4v, to 'akiyo_cif.yuv_Q26.m4v':
  Stream #0.0: Video: mpeg4, 352x288, 25.00 fps, q=2-31, 200 kb/s
Stream mapping:
  Stream #0.0 -> #0.0
[mpeg4 @ 006C3500]removing common factors from framerate
frame=  300 q=26.0 Lsize=      94kB time=12.0 bitrate=  64.5kbits/s    

video:94kB audio:0kB global headers:0kB muxing overhead 0.000000%
375 packets sent.
ffmpeg version 0.4.9-pre1, build 4723, Copyright (c) 2000-2004 Fabrice Bellard
  built on Oct 20 2004 18:37:34, gcc: 3.2.3 (mingw special 20030504-1)
Input #0, rawvideo, from '/home/miced/TRAFIL/ExternalTools/akiyo_cif.yuv':
  Duration: N/A, bitrate: N/A
  Stream #0.0: Video: rawvideo, yuv420p, 352x288, 25.00 fps
fixme:msvcrt:MSVCRT__sopen_s : pmode 0x01b6 ignored
Output #0, m4v, to 'akiyo_cif.yuv_Q27.m4v':
  Stream #0.0: Video: mpeg4, 352x288, 25.00 fps, q=2-31, 200 kb/s
Stream mapping:
  Stream #0.0 -> #0.0
[mpeg4 @ 006C3500]removing common factors from framerate
frame=  300 q=27.0 Lsize=      87kB time=12.0 bitrate=  59.5kbits/s    

video:87kB audio:0kB global headers:0kB muxing overhead 0.000000%
375 packets sent.
ffmpeg version 0.4.9-pre1, build 4723, Copyright (c) 2000-2004 Fabrice Bellard
  built on Oct 20 2004 18:37:34, gcc: 3.2.3 (mingw special 20030504-1)
Input #0, rawvideo, from '/home/miced/TRAFIL/ExternalTools/akiyo_cif.yuv':
  Duration: N/A, bitrate: N/A
  Stream #0.0: Video: rawvideo, yuv420p, 352x288, 25.00 fps
fixme:msvcrt:MSVCRT__sopen_s : pmode 0x01b6 ignored
Output #0, m4v, to 'akiyo_cif.yuv_Q28.m4v':
  Stream #0.0: Video: mpeg4, 352x288, 25.00 fps, q=2-31, 200 kb/s
Stream mapping:
  Stream #0.0 -> #0.0
[mpeg4 @ 006C3500]removing common factors from framerate
frame=  300 q=28.0 Lsize=      84kB time=12.0 bitrate=  57.5kbits/s    

video:84kB audio:0kB global headers:0kB muxing overhead 0.000000%
375 packets sent.
ffmpeg version 0.4.9-pre1, build 4723, Copyright (c) 2000-2004 Fabrice Bellard
  built on Oct 20 2004 18:37:34, gcc: 3.2.3 (mingw special 20030504-1)
Input #0, rawvideo, from '/home/miced/TRAFIL/ExternalTools/akiyo_cif.yuv':
  Duration: N/A, bitrate: N/A
  Stream #0.0: Video: rawvideo, yuv420p, 352x288, 25.00 fps
fixme:msvcrt:MSVCRT__sopen_s : pmode 0x01b6 ignored
Output #0, m4v, to 'akiyo_cif.yuv_Q29.m4v':
  Stream #0.0: Video: mpeg4, 352x288, 25.00 fps, q=2-31, 200 kb/s
Stream mapping:
  Stream #0.0 -> #0.0
[mpeg4 @ 006C3500]removing common factors from framerate
frame=  300 q=29.0 Lsize=      84kB time=12.0 bitrate=  57.1kbits/s    

video:84kB audio:0kB global headers:0kB muxing overhead 0.000000%
375 packets sent.
ffmpeg version 0.4.9-pre1, build 4723, Copyright (c) 2000-2004 Fabrice Bellard
  built on Oct 20 2004 18:37:34, gcc: 3.2.3 (mingw special 20030504-1)
Input #0, rawvideo, from '/home/miced/TRAFIL/ExternalTools/akiyo_cif.yuv':
  Duration: N/A, bitrate: N/A
  Stream #0.0: Video: rawvideo, yuv420p, 352x288, 25.00 fps
fixme:msvcrt:MSVCRT__sopen_s : pmode 0x01b6 ignored
Output #0, m4v, to 'akiyo_cif.yuv_Q30.m4v':
  Stream #0.0: Video: mpeg4, 352x288, 25.00 fps, q=2-31, 200 kb/s
Stream mapping:
  Stream #0.0 -> #0.0
[mpeg4 @ 006C3500]removing common factors from framerate
frame=  300 q=30.0 Lsize=      82kB time=12.0 bitrate=  56.3kbits/s    

video:82kB audio:0kB global headers:0kB muxing overhead 0.000000%
375 packets sent.
ffmpeg version 0.4.9-pre1, build 4723, Copyright (c) 2000-2004 Fabrice Bellard
  built on Oct 20 2004 18:37:34, gcc: 3.2.3 (mingw special 20030504-1)
Input #0, rawvideo, from '/home/miced/TRAFIL/ExternalTools/akiyo_cif.yuv':
  Duration: N/A, bitrate: N/A
  Stream #0.0: Video: rawvideo, yuv420p, 352x288, 25.00 fps
fixme:msvcrt:MSVCRT__sopen_s : pmode 0x01b6 ignored
Output #0, m4v, to 'akiyo_cif.yuv_Q31.m4v':
  Stream #0.0: Video: mpeg4, 352x288, 25.00 fps, q=2-31, 200 kb/s
Stream mapping:
  Stream #0.0 -> #0.0
[mpeg4 @ 006C3500]removing common factors from framerate
frame=  300 q=31.0 Lsize=      83kB time=12.0 bitrate=  56.6kbits/s    

video:83kB audio:0kB global headers:0kB muxing overhead 0.000000%
375 packets sent.
Make RED trace variables
Evalvid-RA: Start making GOP and Frame trace files for 30 Rate variants
warning: no class variable vbrTracefile2::debug_

	see tcl-object.tcl in tclcl for info about this warning.

Evalvid-RA: #of frames written to GOP and Frame trace files: 326

#################statistics######################
#Bytes of drops     : 1592880 
#Bytes of departures: 204687344 
drops stats         : 0.0077219229701825419 
utilization         : 0.97470163809523813 
Number of extra RA variants are 29
Primary Video source reached end, will be stopped now


[INFO]  :  UI.TRAFIL -:- connectActionPerformed -:- START TIME:2012-07-04 14:48:37
[SEVERE]  :  utilities.DatabaseConnection -:- connect -:- Succesfully Connected to Database trafil as root
[SEVERE]  :  src.TracefileHandler -:- performConnection -:- Succesfully Connected to Database trafil as root

[INFO]  :  UI.TRAFIL -:- connectActionPerformed -:- START TIME:2012-07-04 15:10:32
[SEVERE]  :  utilities.DatabaseConnection -:- connect -:- Succesfully Connected to Database trafil as root
[SEVERE]  :  src.TracefileHandler -:- performConnection -:- Succesfully Connected to Database trafil as root

[INFO]  :  UI.TRAFIL -:- connectActionPerformed -:- START TIME:2012-07-04 15:11:48
[SEVERE]  :  utilities.DatabaseConnection -:- connect -:- Succesfully Connected to Database trafil as root
[SEVERE]  :  src.TracefileHandler -:- performConnection -:- Succesfully Connected to Database trafil as root

[INFO]  :  UI.TRAFIL -:- connectActionPerformed -:- START TIME:2012-07-04 16:46:53
[SEVERE]  :  utilities.DatabaseConnection -:- connect -:- Succesfully Connected to Database trafil as root
[SEVERE]  :  src.TracefileHandler -:- performConnection -:- Succesfully Connected to Database trafil as root

[INFO]  :  UI.TRAFIL -:- connectActionPerformed -:- START TIME:2012-07-05 16:52:40
[SEVERE]  :  utilities.DatabaseConnection -:- connect -:- Succesfully Connected to Database trafil as root
[SEVERE]  :  src.TracefileHandler -:- performConnection -:- Succesfully Connected to Database trafil as root

[INFO]  :  UI.TRAFIL -:- connectActionPerformed -:- START TIME:2012-07-10 17:48:53
[SEVERE]  :  utilities.DatabaseConnection -:- connect -:- Succesfully Connected to Database trafil as root
[SEVERE]  :  src.TracefileHandler -:- performConnection -:- Succesfully Connected to Database trafil as root

[INFO]  :  UI.TRAFIL -:- connectActionPerformed -:- START TIME:2012-07-26 11:26:11

[INFO]  :  UI.TRAFIL -:- connectActionPerformed -:- START TIME:2012-10-22 01:07:41

[INFO]  :  UI.TRAFIL -:- connectActionPerformed -:- START TIME:2012-10-22 01:07:43

[INFO]  :  UI.TRAFIL -:- connectActionPerformed -:- START TIME:2012-10-22 01:08:03
[SEVERE]  :  utilities.DatabaseConnection -:- connect -:- Succesfully Connected to Database trafil as root
[SEVERE]  :  src.TracefileHandler -:- performConnection -:- Succesfully Connected to Database trafil as root

[INFO]  :  UI.TRAFIL -:- connectActionPerformed -:- START TIME:2012-10-22 18:49:28
[SEVERE]  :  utilities.DatabaseConnection -:- connect -:- Succesfully Connected to Database trafil as root
[SEVERE]  :  src.TracefileHandler -:- performConnection -:- Succesfully Connected to Database trafil as root

[INFO]  :  UI.TRAFIL -:- connectActionPerformed -:- START TIME:{0}

[INFO]  :  UI.TRAFIL -:- connectActionPerformed -:- START TIME:{0}

[INFO]  :  UI.TRAFIL -:- connectActionPerformed -:- START TIME:{0}
[SEVERE]  :  utilities.DatabaseConnection -:- connect -:- Succesfully Connected to Database trafil as root
[SEVERE]  :  src.TracefileHandler -:- performConnection -:- Succesfully Connected to Database {0} as {1}

[INFO]  :  UI.TRAFIL -:- connectActionPerformed -:- START TIME:{0}
[SEVERE]  :  utilities.DatabaseConnection -:- connect -:- Succesfully Connected to Database trafil as root
[SEVERE]  :  src.TracefileHandler -:- performConnection -:- Succesfully Connected to Database {0} as {1}

[INFO]  :  UI.TRAFIL -:- connectActionPerformed -:- START TIME:{0}
[SEVERE]  :  utilities.DatabaseConnection -:- connect -:- Succesfully Connected to Database trafil as root
[SEVERE]  :  src.TracefileHandler -:- performConnection -:- Succesfully Connected to Database {0} as {1}

[INFO]  :  UI.TRAFIL -:- connectActionPerformed -:- START TIME:{0}
[SEVERE]  :  utilities.DatabaseConnection -:- connect -:- Succesfully Connected to Database trafil as root
[SEVERE]  :  src.TracefileHandler -:- performConnection -:- Succesfully Connected to Database {0} as {1}

[INFO]  :  UI.TRAFIL -:- connectActionPerformed -:- START TIME:{0}
[SEVERE]  :  utilities.DatabaseConnection -:- connect -:- Succesfully Connected to Database trafil as root
[SEVERE]  :  src.TracefileHandler -:- performConnection -:- Succesfully Connected to Database {0} as {1}

[INFO]  :  UI.TRAFIL -:- connectActionPerformed -:- START TIME:{0}
[SEVERE]  :  utilities.DatabaseConnection -:- connect -:- Succesfully Connected to Database trafil as root
[SEVERE]  :  src.TracefileHandler -:- performConnection -:- Succesfully Connected to Database {0} as {1}

[INFO]  :  UI.TRAFIL -:- connectActionPerformed -:- START TIME:{0}
[SEVERE]  :  utilities.DatabaseConnection -:- connect -:- Succesfully Connected to Database trafil as root
[SEVERE]  :  src.TracefileHandler -:- performConnection -:- Succesfully Connected to Database {0} as {1}

[INFO]  :  UI.TRAFIL -:- connectActionPerformed -:- START TIME:{0}
[SEVERE]  :  utilities.DatabaseConnection -:- connect -:- Succesfully Connected to Database trafil as root
[SEVERE]  :  src.TracefileHandler -:- performConnection -:- Succesfully Connected to Database {0} as {1}

[INFO]  :  UI.TRAFIL -:- connectActionPerformed -:- START TIME:{0}
[SEVERE]  :  utilities.DatabaseConnection -:- connect -:- Succesfully Connected to Database trafil as root
[SEVERE]  :  src.TracefileHandler -:- performConnection -:- Succesfully Connected to Database {0} as {1}

[INFO]  :  UI.TRAFIL -:- connectActionPerformed -:- START TIME:{0}
[SEVERE]  :  utilities.DatabaseConnection -:- connect -:- Succesfully Connected to Database trafil as root
[SEVERE]  :  src.TracefileHandler -:- performConnection -:- Succesfully Connected to Database {0} as {1}
[INFO]  :  src.TracefileHandler -:- OpenTraceFile -:- Checking table availability.
[INFO]  :  src.TracefileHandler -:- OpenTraceFile -:- Trace Fils's Name:simple_tr
[INFO]  :  src.TracefileHandler -:- OpenTraceFile -:-  Attempting to match simple_tr with a metafile.
[INFO]  :  src.TracefileHandler -:- matchMetaHandler -:- Succesfully matched trace file witholdwireless_meta.txt metafile.
[INFO]  :  src.TracefileHandler -:- OpenTraceFile -:- Attempting to load sub metafiles for matched metafile.
[INFO]  :  src.TracefileHandler -:- OpenTraceFile -:- Succesfully loaded sub metafiles for matched metafile.
[INFO]  :  src.MetaDataHandler -:- createTable -:- Succesfull MySQL table Creation for trace file:simple_tr
event char(1),time double,NodeID integer,TraceName varchar(20),Reason varchar(20),EventIdentifier int,PacketType varchar(20),PacketSize int,TimeToSendData varchar(20),DestinationMACAddress varchar(20),SourceMACAddress varchar(20),TypeArpIp varchar(20),CBRSequenceNumber int,CBRNumberOfTimesPktForwarded int,CBROptimalNumberOfForwards int,TORAClear_Type varchar(20),TORAClear_Destination int,TORAClear_Tau double,TORAClear_Oid int,TORAQuery_Type varchar(20),TORAQuery_Destination int,TCPSequenceNumber int,TCPAcknowledgmentNumber int,TCPNumberOfTimesPacketWasForwarded int,TCPOptimalNumberOfForwards int,AODV_Type varchar(20),AODV_HopCount int,AODV_Destination int,AODV_DestinationSequenceNumber int,AODV_Lifetime double,AODV_Operation varchar(20),ARPRequestOrReply varchar(20),ARPSourceMacAddress int,ARPSourceAddress int,ARPDestinationMACAddress int,ARPDestinationAddress int,AcknowledgmentFlag char(1),HelloFlag char(1),ObjectFlag char(1),Lenghth int,AODVReuest_Type varchar(20),AODVRequest_HopCount int,AODVRequest_BroadcastID int,AODVRequest_Destination int,AODVRequest_DestinationSeenceNumber int,AODVRequest_Source int,AODVRequest_SourceSequenceNumber int,AODVRequest_Request varchar(20),SourceIpAddress int,SourcePortNumber int,DestinationIpAddress int,DestinationPortNumber int,TTLValue int,NextHopAddress int,TORAUpdate_Type varchar(20),TORAUpdate_Destination int,Operation char(1),RCASource int,RCALinkDescription int,RCAMACDestination int,NumberOfNodes int,RoutingRequestFlag int,RouteRequestSequenceNumber int,RoutingReplyFlag int,RouteReplySequenceNumber int,ReplyLength int,SourceOfSourceRouting int,DestinationOfSourceRouting int,ErrorReportFlag int,NumberOfErrors int,ReportToWhom int,LinkErrorFrom int,LinkErrorTo int,
[INFO]  :  src.TracefileHandler -:- OpenTraceFile -:- Attempting to transfer data from the selected trace file to local database.
[INFO]  :  src.TracefileHandler -:- transferTraceFileData -:- Starting procedure Data Infile.
[INFO]  :  src.TracefileHandler -:- transferTraceFileData -:- Succesfully Transfered data from /home/miced/TRAFIL/Resources/Utility/tempfile.txt to Database.
[INFO]  :  src.TracefileHandler -:- OpenTraceFile -:- Succesfully opened and inserted Trace File Content. Execution time was 8375 ms.
[INFO]  :  metrics.GeneralSimulationInformation -:- produceMetrics -:- Produced staring time.
[INFO]  :  metrics.GeneralSimulationInformation -:- produceMetrics -:- Produced end time.
[INFO]  :  metrics.GeneralSimulationInformation -:- produceMetrics -:- Produced overall simulation time.
[INFO]  :  metrics.GeneralSimulationInformation -:- produceMetrics -:- Produced number of nodes in simulation.
[INFO]  :  metrics.GeneralSimulationInformation -:- produceMetrics -:- Produced number of sending nodes in simulation.
[INFO]  :  metrics.GeneralSimulationInformation -:- produceMetrics -:- Produced number of  Generated Packets Information.
[INFO]  :  metrics.GeneralSimulationInformation -:- produceMetrics -:- Produced number of  Dropped Packets Information.
[INFO]  :  metrics.GeneralSimulationInformation -:- produceMetrics -:- Produced number of  Sent Packets Information.
[INFO]  :  metrics.GeneralSimulationInformation -:- produceMetrics -:- Produced number of  Received Packets Information.
[INFO]  :  metrics.GeneralSimulationInformation -:- produceMetrics -:- Produced number of  Forwarded Packets Information.
[INFO]  :  UI.TRAFIL -:- nodeSelectorActionPerformed -:- Trying to create Node information for node:1
[INFO]  :  UI.TRAFIL -:- nodeSelectorActionPerformed -:- Success in creating Node information for node:1

[INFO]  :  UI.TRAFIL -:- connectActionPerformed -:- START TIME:{0}
[SEVERE]  :  utilities.DatabaseConnection -:- connect -:- Succesfully Connected to Database trafil as root
[SEVERE]  :  src.TracefileHandler -:- performConnection -:- Succesfully Connected to Database {0} as {1}

[INFO]  :  UI.TRAFIL -:- connectActionPerformed -:- START TIME:{0}
[SEVERE]  :  utilities.DatabaseConnection -:- connect -:- Succesfully Connected to Database trafil as root
[SEVERE]  :  src.TracefileHandler -:- performConnection -:- Succesfully Connected to Database {0} as {1}

[INFO]  :  UI.TRAFIL -:- connectActionPerformed -:- START TIME:{0}
[SEVERE]  :  utilities.DatabaseConnection -:- connect -:- Succesfully Connected to Database trafil as root
[SEVERE]  :  src.TracefileHandler -:- performConnection -:- Succesfully Connected to Database {0} as {1}
